<svg width="1380" height="1296" fill="none" xmlns="http://www.w3.org/2000/svg"><path d="M697.166 154.415l-2.656.485 57.929 322.064 2.657-.485-57.93-322.064z" fill="#B3B3B3"/><path d="M1090.45 259.27L753.053 475.737l1.45 2.295L1091.9 261.564l-1.45-2.294z" fill="#B3B3B3"/><path d="M904.548-11.143l-2.214 1.557L1090.08 261.36l2.21-1.557L904.548-11.143z" fill="#B3B3B3"/><path d="M902.599-11.297L694.967 153.77l1.672 2.135L904.272-9.162l-1.673-2.135z" fill="#B3B3B3"/><path d="M606.167-56.606l-2.477 1.082 90.801 210.898 2.477-1.083-90.801-210.897z" fill="#B3B3B3"/><path d="M605.248-57.385l-.406 2.689L903.202-8.97l.406-2.69-298.36-45.725zm486.692 316.753l-1.44 2.3 265.57 168.968 1.45-2.299-265.58-168.969z" fill="#B3B3B3"/><path d="M1355.33 429.026l-129.62 346.091 2.53.96 129.62-346.09-2.53-.961z" fill="#B3B3B3"/><path d="M1023.89 645.055l-1.44 2.301 203.61 129.313 1.44-2.3-203.61-129.314z" fill="#B3B3B3"/><path d="M1355.91 428.364l-333.47 216.615 1.46 2.285 333.47-216.614-1.46-2.286zm-263.39-168.062l-2.66.421 38 244.644 2.66-.42-38-244.645z" fill="#B3B3B3"/><path d="M754.413 475.693l-1.429 2.308L1022.55 647.37l1.43-2.308-269.567-169.369z" fill="#B3B3B3"/><path d="M754.998 476.627l-2.665.439 59.52 366.856 2.664-.439-59.519-366.856z" fill="#B3B3B3"/><path d="M1022.37 645.245L812.153 842.516l1.84 1.99 210.217-197.27-1.84-1.991z" fill="#B3B3B3"/><path d="M1024.64 645.859l-2.64.566 56.15 265.742 2.64-.566-56.15-265.742z" fill="#B3B3B3"/><path d="M1225.95 774.599L1078.3 910.793l1.82 2.006 147.65-136.194-1.82-2.006z" fill="#B3B3B3"/><path d="M1064.3 1089.19l-2.4-1.31 163.8-312.997 2.4 1.209-163.8 313.098z" fill="#B3B3B3"/><path d="M1078.18 911.744l-16.36 176.636 2.69.26 16.36-176.643-2.69-.253z" fill="#B3B3B3"/><path d="M813.499 842.388l-.666 2.636 266.117 68.189.66-2.636-266.111-68.189z" fill="#B3B3B3"/><path d="M769.3 1066.22l-1.2-2.42 310.7-153.121 1.2 2.417-310.7 153.124z" fill="#B3B3B3"/><path d="M769.623 1064.19l-2.179 1.61 153.143 210.77 2.178-1.6-153.142-210.78z" fill="#B3B3B3"/><path d="M1061.81 1087.66l-140.986 187.5 2.152 1.64 140.984-187.5-2.15-1.64z" fill="#B3B3B3"/><path d="M768.865 1063.5l-.213 2.71 294.488 23.55.21-2.71-294.485-23.55z" fill="#B3B3B3"/><path d="M812.107 843.375l-44.865 221.195 2.646.54 44.865-221.19-2.646-.545z" fill="#B3B3B3"/><path d="M812.435 842.549L467.336 1052.58l1.396 2.33 345.099-210.033-1.396-2.328z" fill="#B3B3B3"/><path d="M768.6 1066.32L468 1054.94l.1-2.72 300.6 11.38-.1 2.72z" fill="#B3B3B3"/><path d="M767.472 1064.27l-139.589 229.16 2.301 1.42 139.589-229.16-2.301-1.42z" fill="#B3B3B3"/><path d="M629.2 1295.5l-.2-2.72 292.7-18.33.2 2.62-292.7 18.43z" fill="#B3B3B3"/><path d="M297.154 1187.36l-.812 2.59 332.304 105.43.811-2.59-332.303-105.43z" fill="#B3B3B3"/><path d="M297.6 1189.72l-1.6-2.11 171.2-135.09 1.7 2.11-171.3 135.09z" fill="#B3B3B3"/><path d="M628 1294.9l-161.1-240.57 2.3-1.51 161 240.57-2.2 1.51zm-332.2-105.38L81.7 936.165l2-1.712 214.1 253.357-2 1.71z" fill="#B3B3B3"/><path d="M82.8 936.669l-.2-2.72 253.9-22.263.3 2.72-254 22.263z" fill="#B3B3B3"/><path d="M295.735 685.229L81.582 934.42l2.042 1.78 214.152-249.19-2.041-1.781z" fill="#B3B3B3"/><path d="M107.21 490.998L80.953 935.261l2.695.162 26.257-444.263-2.695-.162z" fill="#B3B3B3"/><path d="M109.5 491.202l-2.6-.403 50-283.579 2.7.403-50.1 283.579z" fill="#B3B3B3"/><path d="M159.039 206.236l-1.343 2.36 218.288 126.045 1.343-2.36-218.288-126.045z" fill="#B3B3B3"/><path d="M375.899 332.39L107.478 489.838l1.359 2.351 268.42-157.449-1.358-2.35z" fill="#B3B3B3"/><path d="M109.086 490.005l-1.934 1.899L295.724 686.85l1.934-1.898-188.572-194.947zM335.722 61.968L157.373 206.347l1.691 2.121 178.349-144.38-1.691-2.12z" fill="#B3B3B3"/><path d="M604.524-57.326L336.095 61.747l1.088 2.489L605.612-54.837l-1.088-2.49z" fill="#B3B3B3"/><path d="M337.968 62.867l-2.671.4 39.869 270.425 2.67-.4-39.868-270.424z" fill="#B3B3B3"/><path d="M529.458 160.858l-154.06 171.627 2.003 1.824L531.46 162.682l-2.002-1.824zM336.959 61.696l-.664 2.636 358.641 91.693.664-2.637-358.641-91.692z" fill="#B3B3B3"/><path d="M376.99 332.166l-.953 2.545 377.141 143.345.953-2.544L376.99 332.166z" fill="#B3B3B3"/><path d="M505.7 755.238l-1.9-1.813 248.9-277.636 2 1.813-249 277.636z" fill="#B3B3B3"/><path d="M504.3 755.642l-208-68.402.9-2.518 208 68.401-.9 2.519z" fill="#B3B3B3"/><path d="M298.1 686.333l-2.6-.604 79.7-352.586 2.6.605-79.7 352.585z" fill="#B3B3B3"/><path d="M377.781 333.105l-2.556.876 67.865 200.732 2.556-.877-67.865-200.731zm125.642 421.198l-36.605 299.247 2.68.34 36.604-299.254-2.679-.333zm-205.327-68.517l-2.658.474 39.874 227.063 2.659-.474-39.875-227.063z" fill="#B3B3B3"/><path d="M699.709 726.484l-195.148 26.401.36 2.696 195.147-26.401-.359-2.696zm204.46-738.059l-1.456 2.29L1226.2 199.353l1.46-2.29L904.169-11.575z" fill="#B3B3B3"/><path d="M1226.39 197.167l-135.85 62.15 1.12 2.477 135.85-62.15-1.12-2.477z" fill="#B3B3B3"/><path d="M1228.03 197.477l-2.35 1.339 129.82 231.22 2.35-1.339-129.82-231.22zM753.726 475.388l-.202 2.712 375.446 28.374.2-2.712-375.444-28.374z" fill="#B3B3B3"/><path d="M1356.37 427.906l-227.48 76.16.86 2.581 227.47-76.159-.85-2.582z" fill="#B3B3B3"/><path d="M1024.3 646.944l-2.1-1.611 105.9-140.934 2.1 1.612-105.9 140.933zM922.6 1276.86l-1.6-2.21 319.5-216.49 1.6 2.22-319.5 216.48z" fill="#B3B3B3"/><path d="M1063.4 1089.79l-.6-2.62 178.2-29.21.6 2.62-178.2 29.21z" fill="#B3B3B3"/><path d="M1240 1059.37l-14.4-283.782 2.6-.101 14.4 283.783-2.6.1z" fill="#B3B3B3"/><path d="M1242.5 1059.87l-2.4-1.11 136.4-341.601 2.5 1.108-136.5 341.603z" fill="#B3B3B3"/><path d="M1358.06 429.331l-2.7.199 21.05 288.239 2.69-.199-21.04-288.239z" fill="#B3B3B3"/><path d="M1227.4 776.797l-1-2.519 150.9-57.824.9 2.519-150.8 57.824zM2.73 538.272l-2.644.55L81.29 935.646l2.644-.549L2.73 538.272z" fill="#B3B3B3"/><path d="M157.171 206.954L.135 537.872l2.436 1.173 157.036-330.917-2.436-1.174z" fill="#B3B3B3"/><path d="M107.507 489.754L.877 537.267l1.092 2.487 106.63-47.513-1.092-2.487zm335.794 43.472L295.882 685.154l1.931 1.902 147.419-151.929-1.931-1.901z" fill="#B3B3B3"/><path d="M445.652 533.83l-2.603.724 60.348 220.13 2.603-.724-60.348-220.13z" fill="#B3B3B3"/><path d="M753.45 475.54l-309.279 57.503.49 2.675 309.279-57.504-.49-2.674zm-56.943-322.073l-1.366 2.346 173.794 102.733 1.366-2.346-173.794-102.733z" fill="#B3B3B3"/><path d="M868.561 256.907L752.462 476.09l2.382 1.28 116.099-219.182-2.382-1.281z" fill="#B3B3B3"/><path d="M869.577 256.176l-.036 2.719 221.579 3.002.04-2.72-221.583-3.001z" fill="#B3B3B3"/><path d="M902.101-10.616l-33.915 267.92 2.678.344 33.915-267.92-2.678-.344zM83.041 933.897l-.787 2.602 385.414 118.311.787-2.6L83.041 933.897z" fill="#B3B3B3"/><path d="M337.696 912.093l-1.966 1.864 131.411 140.613 1.965-1.87-131.41-140.607z" fill="#B3B3B3"/><path d="M298.146 685.417l-2.444 1.156L466.979 1054.2l2.444-1.16-171.277-367.623zm402.576 41.308l-1.925 1.907 113.347 116.024 1.924-1.908-113.346-116.023z" fill="#B3B3B3"/><path d="M752.518 476.334l-54.064 250.954 2.639.577 54.064-250.954-2.639-.577zM505.157 752.938l-.746 2.614L812.924 844.9l.746-2.614-308.513-89.348zM337.275 61.84l-1.218 2.427 193.762 98.636 1.218-2.428L337.275 61.84z" fill="#B3B3B3"/><path d="M531.44 160.837l-2.197 1.58 223.316 315.054 2.198-1.581L531.44 160.837z" fill="#B3B3B3"/><path d="M695.722 153.477l-165.368 6.776.11 2.718 165.368-6.776-.11-2.718z" fill="#B3B3B3"/></svg>